<svg width="100" height="30" viewBox="0 0 1222 477" fill="none" xmlns="http://www.w3.org/2000/svg">
<g clip-path="url(#clip0_418_2)">
<path d="M416.81 132.55V205.72C405.89 188.82 386.88 177.63 365.25 177.63C342.19 177.63 322.47 190.3 312.03 210.7C300.04 234.12 304.75 261.02 294.35 285.19C289.56 296.34 283.1 306.59 275.28 315.65C273.22 318.06 271.05 320.38 268.79 322.59C262.1 329.22 254.62 335.05 246.5 339.91C228.74 350.6 207.94 356.74 185.7 356.74C177.88 356.74 170.24 355.98 162.85 354.52C149.21 351.86 136.41 346.85 124.9 339.91C110.58 331.32 98.23 319.77 88.7 306.11C84.14 299.59 80.23 292.58 77.05 285.19C70.89 270.88 67.48 255.1 67.48 238.52C67.48 173.23 120.41 120.3 185.7 120.3C218.31 120.3 247.83 133.5 269.21 154.85C255.35 170.67 245.33 189.94 240.62 211.2C230.57 191.04 209.75 177.19 185.7 177.19C154.56 177.19 128.84 200.4 124.9 230.46C124.55 233.1 124.37 235.79 124.37 238.52C124.37 257.2 132.72 273.93 145.9 285.19C156.61 294.33 170.52 299.85 185.7 299.85C200.88 299.85 214.79 294.33 225.5 285.19C231.68 279.91 236.79 273.43 240.48 266.11C249.03 249.14 246.8 228.8 252.26 210.75C257.38 193.82 263.93 175.4 275.66 161.83C277.52 159.68 279.44 157.6 281.45 155.59C288.17 148.82 295.72 142.86 303.92 137.88C321.8 127 342.8 120.74 365.25 120.74C383.73 120.74 401.23 124.98 416.81 132.55Z" fill="url(#paint0_linear_418_2)"/>
<path d="M303.92 284.09V331.85C303.92 334.55 303.83 337.23 303.65 339.88C303.42 343.35 303.04 346.79 302.51 350.17C293.7 406.76 244.76 450.07 185.7 450.07C153.01 450.07 123.42 436.8 102.02 415.35L142.24 375.13C153.34 386.28 168.71 393.19 185.7 393.19C212.88 393.19 235.93 375.5 243.98 351.01C255.27 345.15 265.57 337.64 274.55 328.8C276.79 326.59 278.96 324.29 281.04 321.92C287.84 314.15 293.71 305.54 298.47 296.26C300.49 292.32 302.31 288.26 303.92 284.09Z" fill="url(#paint1_linear_418_2)"/>
<path d="M483.48 50.0701V238.96C483.48 247.87 482.49 256.55 480.62 264.89C468.81 317.72 421.64 357.19 365.25 357.19C342.8 357.19 321.8 350.93 303.92 340.05V284.09C306.31 277.89 308.23 271.46 309.63 264.83C319.39 285.78 340.62 300.3 365.25 300.3C399.13 300.3 426.59 272.84 426.59 238.96V106.96C426.59 91.2501 432.96 77.0301 443.25 66.7301C451.36 58.6201 461.91 52.9501 473.7 50.9101C476.88 50.3601 480.14 50.0701 483.48 50.0701Z" fill="url(#paint2_linear_418_2)"/>
<path d="M1009.33 275.59C1009.33 271.07 1009.33 267.14 1009.33 262.11C1020.36 262.11 1030.79 262.44 1041.2 262.03C1057.5 261.4 1063.25 255.3 1063.39 239.24C1063.46 230.69 1063.62 222.13 1063.34 213.6C1062.93 201.38 1055.52 194.29 1043.47 194.1C1031.92 193.92 1023.32 201.7 1022.61 212.96C1021.83 225.32 1028.91 233.48 1041.42 234.6C1043.62 234.8 1045.84 234.83 1048.97 234.98C1048.97 239.46 1048.97 243.68 1048.97 248.52C1035.1 248.52 1020.85 250.04 1007.07 248.14C989.29 245.7 979.48 231.15 980.23 212.58C980.94 194.9 991.97 181.5 1009.77 180.49C1032.13 179.22 1054.66 179.33 1077.02 180.51C1093.86 181.4 1105.24 195.09 1105.68 212C1105.94 222.03 1105.79 232.07 1105.72 242.11C1105.59 260.42 1095.89 273.79 1077.74 275.18C1055.17 276.9 1032.36 275.59 1009.33 275.59Z" fill="url(#paint3_linear_418_2)"/>
<path d="M652.62 149.62H625.82V230.77H652.62V149.62Z" fill="url(#paint4_linear_418_2)"/>
<path d="M740.8 205.69V230.79H713.66V208.43C713.66 201.64 708.14 196.16 701.35 196.16H700.52C693.71 196.16 688.19 201.64 688.19 208.43V209.26C688.19 216.05 693.71 221.53 700.52 221.53H705.07V230.79H681.56C670.69 230.79 661.9 222 661.9 211.17V205.69C661.9 194.86 670.69 186.09 681.56 186.09H721.15C731.99 186.09 740.8 194.85 740.8 205.69Z" fill="url(#paint5_linear_418_2)"/>
<path d="M592.36 176.47V173.66C592.36 165.41 585.66 158.74 577.41 158.74H577.14C568.89 158.74 562.19 165.41 562.19 173.66V206.63C562.19 214.86 568.89 221.53 577.14 221.53H577.41C585.66 221.53 592.36 214.86 592.36 206.63V194.45H574.21V186.09H617.05V212.11C617.05 222.43 608.66 230.79 598.31 230.79H553.42C544.83 230.79 537.89 223.85 537.89 215.31V170.23C537.89 158.86 547.13 149.62 558.54 149.62H596.37C607.78 149.62 617.04 158.86 617.04 170.23V176.48H592.36V176.47Z" fill="url(#paint6_linear_418_2)"/>
<path d="M837.74 230.78H749.81L793.78 194.32H758.83V186.09H846.51V187.58L803.67 221.29L837.74 221.54V230.78Z" fill="url(#paint7_linear_418_2)"/>
<path d="M880.92 186.09H855.53V230.79H880.92V186.09Z" fill="url(#paint8_linear_418_2)"/>
<path d="M969.75 206.38V230.79H943.37V208.38C943.37 201.12 937.46 195.23 930.18 195.23C922.9 195.23 916.99 201.12 916.99 208.38V230.79H889.6V206.38C889.6 194.33 899.38 184.58 911.47 184.58H947.88C959.97 184.58 969.75 194.34 969.75 206.38Z" fill="url(#paint9_linear_418_2)"/>
<path d="M560.65 280.55L549.15 253.44H559.02L568.38 276.33H562.52L572.15 253.44H581.16L569.67 280.55H560.65Z" fill="#505861"/>
<path d="M591.23 253.44H582.06V280.55H591.23V253.44Z" fill="#505861"/>
<path d="M595.66 280.55V253.44H609.06C612.09 253.44 614.76 253.99 617.06 255.09C619.36 256.19 621.17 257.74 622.46 259.76C623.75 261.77 624.4 264.17 624.4 266.96C624.4 269.77 623.75 272.19 622.46 274.22C621.16 276.25 619.36 277.81 617.06 278.91C614.75 280.01 612.09 280.55 609.06 280.55H595.66ZM604.82 273.43H608.67C609.97 273.43 611.1 273.19 612.07 272.7C613.04 272.21 613.8 271.48 614.34 270.51C614.88 269.54 615.16 268.36 615.16 266.97C615.16 265.6 614.89 264.44 614.34 263.48C613.8 262.53 613.04 261.8 612.07 261.31C611.1 260.82 609.97 260.57 608.67 260.57H604.82V273.43Z" fill="#505861"/>
<path d="M627.74 280.55V253.44H640.83C643.37 253.44 645.56 253.85 647.41 254.68C649.26 255.51 650.69 256.69 651.7 258.22C652.71 259.76 653.21 261.57 653.21 263.66C653.21 265.75 652.71 267.55 651.7 269.06C650.69 270.57 649.26 271.73 647.41 272.53C645.56 273.33 643.36 273.73 640.83 273.73H632.83L636.91 269.97V280.54H627.74V280.55ZM636.91 270.99L632.83 266.85H640.25C641.52 266.85 642.46 266.57 643.07 266C643.68 265.43 643.98 264.66 643.98 263.68C643.98 262.7 643.68 261.92 643.07 261.36C642.46 260.79 641.52 260.51 640.25 260.51H632.83L636.91 256.37V270.99ZM644.02 280.55L637.34 270.68H647.05L653.81 280.55H644.02Z" fill="#505861"/>
<path d="M670.98 281.17C668.75 281.17 666.7 280.82 664.82 280.13C662.94 279.43 661.32 278.44 659.94 277.17C658.57 275.89 657.5 274.39 656.74 272.66C655.98 270.93 655.59 269.05 655.59 267.01C655.59 264.95 655.97 263.05 656.74 261.34C657.5 259.62 658.57 258.13 659.94 256.85C661.31 255.57 662.94 254.58 664.82 253.89C666.7 253.19 668.74 252.84 670.94 252.84C673.17 252.84 675.21 253.19 677.08 253.89C678.94 254.59 680.56 255.57 681.93 256.85C683.3 258.13 684.37 259.63 685.13 261.34C685.89 263.06 686.28 264.95 686.28 267.01C686.28 269.05 685.9 270.94 685.13 272.66C684.37 274.39 683.3 275.89 681.93 277.17C680.56 278.45 678.94 279.43 677.08 280.13C675.22 280.82 673.18 281.17 670.98 281.17ZM670.94 273.78C671.79 273.78 672.59 273.63 673.33 273.32C674.07 273.01 674.71 272.56 675.27 271.98C675.83 271.4 676.26 270.69 676.57 269.85C676.88 269.01 677.04 268.06 677.04 267C677.04 265.94 676.88 264.99 676.57 264.15C676.26 263.31 675.82 262.6 675.27 262.02C674.71 261.44 674.07 261 673.33 260.69C672.59 260.38 671.8 260.23 670.94 260.23C670.08 260.23 669.29 260.38 668.55 260.69C667.81 261 667.17 261.45 666.61 262.02C666.05 262.6 665.62 263.31 665.31 264.15C665 264.99 664.84 265.94 664.84 267C664.84 268.06 665 269.01 665.31 269.85C665.62 270.69 666.05 271.4 666.61 271.98C667.17 272.56 667.81 273.01 668.55 273.32C669.29 273.62 670.09 273.78 670.94 273.78Z" fill="#505861"/>
<path d="M699.77 281.17C697.49 281.17 695.29 280.91 693.17 280.4C691.05 279.89 689.3 279.21 687.93 278.39L690.88 271.73C692.18 272.48 693.62 273.08 695.21 273.53C696.8 273.98 698.35 274.21 699.85 274.21C700.73 274.21 701.42 274.15 701.93 274.03C702.44 273.91 702.81 273.75 703.04 273.53L703.39 272.73C703.39 272.24 703.12 271.85 702.57 271.57C702.03 271.29 701.31 271.05 700.41 270.85C699.52 270.66 698.54 270.45 697.48 270.23C696.42 270.01 695.35 269.72 694.28 269.36C693.21 269 692.22 268.52 691.33 267.93C690.44 267.34 689.72 266.56 689.17 265.59C688.63 264.62 688.35 263.42 688.35 261.97C688.35 260.29 688.82 258.76 689.77 257.38C690.71 256 692.13 254.9 694 254.07C695.88 253.24 698.22 252.83 701.01 252.83C702.85 252.83 704.66 253.02 706.45 253.41C708.24 253.8 709.84 254.39 711.27 255.19L708.51 261.81C707.16 261.14 705.86 260.63 704.61 260.3C703.35 259.96 702.13 259.8 700.94 259.8C700.06 259.8 699.36 259.88 698.84 260.03C698.32 260.18 697.95 260.39 697.73 260.65L697.4 261.5C697.4 261.97 697.67 262.33 698.22 262.6C698.76 262.87 699.48 263.1 700.38 263.28C701.27 263.46 702.26 263.65 703.33 263.86C704.4 264.06 705.47 264.35 706.53 264.71C707.59 265.07 708.57 265.55 709.46 266.14C710.35 266.73 711.07 267.51 711.62 268.46C712.16 269.42 712.43 270.6 712.43 272.02C712.43 273.67 711.96 275.19 711.01 276.57C710.06 277.95 708.66 279.06 706.79 279.9C704.94 280.75 702.59 281.17 699.77 281.17Z" fill="#505861"/>
<path d="M735.82 273.66H749.42V280.55H726.81V253.44H748.92V260.33H735.83V273.66H735.82ZM735.2 263.51H747.32V270.09H735.2V263.51Z" fill="#505861"/>
<path d="M773.62 273.66H787.22V280.55H764.61V253.44H786.72V260.33H773.63V273.66H773.62ZM773 263.51H785.12V270.09H773V263.51Z" fill="#505861"/>
<path d="M800.89 281.17C798.61 281.17 796.41 280.91 794.28 280.4C792.16 279.89 790.41 279.21 789.04 278.39L791.99 271.73C793.29 272.48 794.73 273.08 796.32 273.53C797.91 273.98 799.46 274.21 800.96 274.21C801.84 274.21 802.53 274.15 803.04 274.03C803.55 273.91 803.92 273.75 804.15 273.53L804.5 272.73C804.5 272.24 804.23 271.85 803.68 271.57C803.14 271.29 802.42 271.05 801.52 270.85C800.63 270.66 799.65 270.45 798.59 270.23C797.53 270.01 796.46 269.72 795.39 269.36C794.32 269 793.33 268.52 792.44 267.93C791.55 267.34 790.83 266.56 790.28 265.59C789.74 264.62 789.46 263.42 789.46 261.97C789.46 260.29 789.93 258.76 790.88 257.38C791.82 256 793.24 254.9 795.11 254.07C796.99 253.24 799.33 252.83 802.12 252.83C803.96 252.83 805.77 253.02 807.56 253.41C809.35 253.8 810.95 254.39 812.38 255.19L809.62 261.81C808.27 261.14 806.97 260.63 805.71 260.3C804.45 259.96 803.23 259.8 802.04 259.8C801.16 259.8 800.46 259.88 799.94 260.03C799.42 260.18 799.05 260.39 798.83 260.65L798.5 261.5C798.5 261.97 798.77 262.33 799.32 262.6C799.86 262.87 800.58 263.1 801.48 263.28C802.37 263.46 803.36 263.65 804.43 263.86C805.5 264.06 806.57 264.35 807.64 264.71C808.7 265.07 809.68 265.55 810.57 266.14C811.46 266.73 812.18 267.51 812.73 268.46C813.27 269.42 813.54 270.6 813.54 272.02C813.54 273.67 813.07 275.19 812.12 276.57C811.17 277.95 809.77 279.06 807.9 279.9C806.06 280.75 803.71 281.17 800.89 281.17Z" fill="#505861"/>
<path d="M816.28 280.55V253.44H829.37C831.91 253.44 834.1 253.85 835.95 254.68C837.8 255.51 839.23 256.69 840.24 258.22C841.25 259.76 841.75 261.57 841.75 263.66C841.75 265.75 841.25 267.56 840.24 269.08C839.23 270.61 837.8 271.79 835.95 272.62C834.1 273.46 831.9 273.88 829.37 273.88H821.37L825.45 269.97V280.54H816.28V280.55ZM825.44 270.99L821.36 266.85H828.78C830.05 266.85 830.99 266.57 831.6 266C832.21 265.43 832.51 264.66 832.51 263.68C832.51 262.7 832.21 261.92 831.6 261.36C830.99 260.79 830.05 260.51 828.78 260.51H821.36L825.44 256.37V270.99Z" fill="#505861"/>
<path d="M853.76 273.66H867.36V280.55H844.75V253.44H866.86V260.33H853.77V273.66H853.76ZM853.14 263.51H865.26V270.09H853.14V263.51Z" fill="#505861"/>
<path d="M870.9 280.55V253.44H880.06V273.47H892.34V280.55H870.9Z" fill="#505861"/>
<path d="M904.03 280.55H894.86V253.44H904.03V280.55ZM913.13 270.56H903.42V263.05H913.13V270.56ZM912.5 253.44H921.67V280.55H912.5V253.44Z" fill="#505861"/>
<path d="M940.4 281.17C938.17 281.17 936.12 280.82 934.24 280.13C932.36 279.43 930.74 278.44 929.36 277.17C927.99 275.89 926.92 274.39 926.16 272.66C925.4 270.93 925.01 269.05 925.01 267.01C925.01 264.95 925.39 263.05 926.16 261.34C926.92 259.62 927.99 258.13 929.36 256.85C930.73 255.57 932.36 254.58 934.24 253.89C936.12 253.19 938.16 252.84 940.36 252.84C942.59 252.84 944.63 253.19 946.5 253.89C948.36 254.59 949.98 255.57 951.35 256.85C952.72 258.13 953.79 259.63 954.55 261.34C955.31 263.06 955.7 264.95 955.7 267.01C955.7 269.05 955.32 270.94 954.55 272.66C953.79 274.39 952.72 275.89 951.35 277.17C949.98 278.45 948.36 279.43 946.5 280.13C944.63 280.82 942.6 281.17 940.4 281.17ZM940.36 273.78C941.21 273.78 942.01 273.63 942.75 273.32C943.49 273.01 944.14 272.56 944.69 271.98C945.25 271.4 945.68 270.69 945.99 269.85C946.3 269.01 946.46 268.06 946.46 267C946.46 265.94 946.3 264.99 945.99 264.15C945.68 263.31 945.25 262.6 944.69 262.02C944.13 261.44 943.49 261 942.75 260.69C942.01 260.38 941.22 260.23 940.36 260.23C939.5 260.23 938.71 260.38 937.97 260.69C937.23 261 936.58 261.45 936.03 262.02C935.47 262.6 935.04 263.31 934.73 264.15C934.42 264.99 934.26 265.94 934.26 267C934.26 268.06 934.42 269.01 934.73 269.85C935.04 270.69 935.48 271.4 936.03 271.98C936.59 272.56 937.23 273.01 937.97 273.32C938.71 273.62 939.5 273.78 940.36 273.78Z" fill="#505861"/>
<path d="M969.18 281.17C966.9 281.17 964.7 280.91 962.58 280.4C960.46 279.89 958.71 279.21 957.34 278.39L960.29 271.73C961.59 272.48 963.03 273.08 964.62 273.53C966.21 273.98 967.76 274.21 969.26 274.21C970.14 274.21 970.83 274.15 971.34 274.03C971.85 273.91 972.22 273.75 972.45 273.53L972.8 272.73C972.8 272.24 972.53 271.85 971.98 271.57C971.44 271.29 970.72 271.05 969.82 270.85C968.93 270.66 967.95 270.45 966.89 270.23C965.83 270.01 964.76 269.72 963.69 269.36C962.62 269 961.63 268.52 960.74 267.93C959.85 267.34 959.13 266.56 958.58 265.59C958.04 264.62 957.76 263.42 957.76 261.97C957.76 260.29 958.23 258.76 959.18 257.38C960.12 256 961.54 254.9 963.41 254.07C965.29 253.24 967.63 252.83 970.42 252.83C972.26 252.83 974.07 253.02 975.86 253.41C977.65 253.8 979.25 254.39 980.68 255.19L977.92 261.81C976.57 261.14 975.27 260.63 974.02 260.3C972.76 259.96 971.54 259.8 970.35 259.8C969.47 259.8 968.77 259.88 968.25 260.03C967.73 260.18 967.36 260.39 967.14 260.65L966.81 261.5C966.81 261.97 967.08 262.33 967.63 262.6C968.17 262.87 968.89 263.1 969.79 263.28C970.68 263.46 971.67 263.65 972.74 263.86C973.81 264.06 974.88 264.35 975.95 264.71C977.01 265.07 977.99 265.55 978.88 266.14C979.77 266.73 980.49 267.51 981.04 268.46C981.58 269.42 981.85 270.6 981.85 272.02C981.85 273.67 981.38 275.19 980.43 276.57C979.48 277.95 978.08 279.06 976.21 279.9C974.35 280.75 972.01 281.17 969.18 281.17Z" fill="#505861"/>
<path d="M857.44 310.46L859.35 310.72C859 312.8 858.82 314.25 858.82 315.06C858.82 316.12 859.46 316.83 860.75 317.2C862.04 317.57 864.5 317.76 868.13 317.76C870.6 317.76 874.01 317.59 878.34 317.23L891.83 316.07C896.52 315.68 900.81 315.48 904.69 315.48C915.7 315.48 924.12 317.7 929.96 322.12C935.79 326.55 938.71 332.91 938.71 341.19C938.71 347.33 937.27 353.59 934.4 359.97C931.53 366.35 927.65 371.91 922.78 376.64C914.84 384.33 906.19 388.17 896.8 388.17C890.7 388.17 885.64 386.77 881.64 383.96C877.64 381.16 873.25 375.98 868.49 368.43L864.57 362.24L864.1 361.45L863.04 361.82C853.09 365.07 845.68 366.69 840.82 366.69C835.67 366.69 831.52 365.28 828.39 362.46C825.25 359.64 823.68 355.93 823.68 351.35C823.68 344.79 826.57 339.66 832.36 335.95C836.28 333.41 840.31 332.14 844.48 332.14C848.68 332.14 852.3 333.68 855.35 336.77C858.4 339.86 862.84 346.44 868.66 356.53L869.3 357.59L871.26 356.85C884.31 351.91 896.97 346.64 909.25 341.03L921.32 335.53L922.96 334.79C923.1 335.28 923.17 335.74 923.17 336.16C923.17 338.49 921.88 343.23 919.31 350.39C916.94 356.95 915.77 360.85 915.77 362.09C915.77 363.15 916.44 363.68 917.78 363.68C918.45 363.68 919.4 363.49 920.64 363.1L921.22 365L920 365.42C917.11 366.48 913.67 367.64 909.68 368.91L908.31 369.38C908.38 368.46 908.54 367.49 908.78 366.47L909.2 364.67C909.69 362.63 910.96 358.67 913.01 352.82C914.88 347.42 915.81 344.3 915.81 343.45C915.81 342.11 915.28 341.44 914.22 341.44C913.58 341.44 912.47 341.8 910.88 342.5L907.02 344.19L895.12 349.37C886.65 353.04 878.81 356.2 871.57 358.84L870.35 359.26C875.4 368.18 880.23 374.58 884.85 378.44C889.47 382.3 894.61 384.24 900.25 384.24C905.3 384.24 910.17 382.88 914.88 380.17C919.59 377.45 923.44 373.77 926.44 369.11C931.55 361.14 934.11 352.99 934.11 344.67C934.11 337.4 931.55 331.8 926.44 327.87C921.32 323.94 914.02 321.97 904.53 321.97C901.14 321.97 897.09 322.18 892.36 322.61L874.21 324.36C871.11 324.64 867.9 324.78 864.58 324.78C860.56 324.78 857.15 324.29 854.37 323.3L854.64 322.3C855.17 320.4 855.63 318.62 856.02 316.96L857.24 311.3L857.44 310.46ZM863 359.72L861.78 357.71C856.59 349.17 852.5 343.51 849.5 340.73C846.5 337.94 842.97 336.55 838.92 336.55C835.5 336.55 832.53 337.81 830.03 340.33C827.53 342.85 826.27 345.82 826.27 349.25C826.27 353.48 827.87 356.97 831.06 359.7C834.25 362.43 838.3 363.8 843.2 363.8C848.85 363.8 855.45 362.44 863 359.72Z" fill="url(#paint10_linear_418_2)"/>
<path d="M963.16 365.07C963.65 366.06 963.9 366.94 963.9 367.72C963.9 371.11 961.55 375.01 956.86 379.42C950.02 385.87 944.2 389.1 939.4 389.1C935.27 389.1 933.21 386.75 933.21 382.06C933.21 376.77 934.83 371.21 938.05 365.39C941.28 359.57 945.41 354.77 950.46 351C956.6 346.41 962.06 344.12 966.86 344.12C969.65 344.12 971.04 345.15 971.04 347.19C971.04 348.53 970.37 350.15 969.03 352.03C967.69 353.92 966.02 355.62 964.01 357.13C962.14 358.51 959.77 359.78 956.89 360.94C954.02 362.11 951.8 362.69 950.25 362.69C948.59 362.69 947.44 361.77 946.81 359.94C948.29 360.15 949.47 360.26 950.35 360.26C953.88 360.26 957.13 359.25 960.11 357.22C963.09 355.19 964.58 353 964.58 350.63C964.58 348.94 963.49 348.09 961.3 348.09C957.39 348.09 953.38 350.49 949.29 355.29C946.4 358.67 944.02 362.62 942.15 367.14C940.28 371.66 939.35 375.68 939.35 379.21C939.35 382.84 940.87 384.66 943.9 384.66C947.22 384.66 950.67 382.84 954.24 379.18C957.83 375.52 960.8 370.82 963.16 365.07Z" fill="url(#paint11_linear_418_2)"/>
<path d="M996.81 344.64L996.23 345.65L993.64 349.99C992.72 351.54 991.75 353.09 990.73 354.65L990.15 355.5L988.83 354.6L989.2 353.76C989.94 352.24 990.31 351.17 990.31 350.53C990.31 349.19 989.13 348.52 986.77 348.52C984.62 348.52 982.73 349.32 981.11 350.93C979.49 352.54 978.67 354.39 978.67 356.51C978.67 357.64 979.03 358.98 979.73 360.53L982.27 365.98C983.12 367.81 983.54 369.83 983.54 372.01C983.54 376.28 981.19 380.32 976.5 384.13C972.44 387.41 968.84 389.05 965.71 389.05C963.91 389.05 962.43 388.6 961.26 387.7C960.1 386.8 959.52 385.64 959.52 384.23C959.52 382.57 959.94 380.97 960.79 379.42C962.98 383.16 965.7 385.03 968.94 385.03C971.51 385.03 973.79 384.15 975.77 382.38C977.75 380.62 978.73 378.57 978.73 376.24C978.73 375.01 978.38 373.59 977.67 372L974.55 365.17C973.95 363.83 973.65 362.35 973.65 360.73C973.65 357.8 975.27 354.52 978.52 350.89C980.71 348.49 982.89 346.81 985.05 345.84C987.22 344.87 989.95 344.39 993.23 344.39C994.48 344.38 995.68 344.47 996.81 344.64Z" fill="url(#paint12_linear_418_2)"/>
<path d="M1011.05 343.27V343.85C1011.05 347.17 1008.86 353.73 1004.49 363.53L1000.57 372.42C998.49 377.18 997.42 380.09 997.34 381.15C997.31 382.24 997.9 382.76 999.14 382.68C999.85 382.65 1001.01 382.28 1002.63 381.57L1003.32 383.1C997.78 385.75 993.36 387.63 990.04 388.76C990.21 385.44 990.75 382.38 991.65 379.58C992.55 376.78 994.5 372.13 997.5 365.64C1001.31 357.31 1003.25 352.45 1003.32 351.03C1003.39 349.94 1002.93 349.39 1001.95 349.39C1001.49 349.39 1000.89 349.52 1000.15 349.76L997.92 350.55C997.78 350.58 997.45 350.71 996.91 350.92L996.38 349.23L997.49 348.86C1001.4 347.41 1005.39 345.79 1009.45 343.99L1011.05 343.27ZM1014.11 329.72C1015.73 329.72 1016.54 330.53 1016.54 332.15C1016.54 333.07 1016.18 333.9 1015.46 334.63C1014.73 335.37 1013.92 335.74 1013 335.74C1011.34 335.74 1010.52 334.93 1010.52 333.31C1010.52 332.39 1010.88 331.56 1011.61 330.83C1012.33 330.09 1013.16 329.72 1014.11 329.72Z" fill="url(#paint13_linear_418_2)"/>
<path d="M1042.16 369.46C1037.68 384.31 1033.06 395.16 1028.3 402C1025.09 406.62 1020.94 410.53 1015.84 413.74C1010.74 416.95 1006.11 418.56 1001.95 418.56C1000.08 418.56 998.55 418.11 997.35 417.21C996.15 416.31 995.55 415.15 995.55 413.74C995.55 412.9 995.74 412.01 996.13 411.09C999.17 413.63 1002.6 414.9 1006.45 414.9C1018.27 414.9 1027.84 400.51 1035.18 371.72C1030.52 376.9 1026.05 381.06 1021.77 384.18C1017.48 387.3 1014.1 388.86 1011.64 388.86C1008.68 388.86 1007.2 386.97 1007.2 383.2C1007.2 378.83 1009.09 373.89 1012.86 368.39C1016.63 362.89 1021.47 358.04 1027.36 353.84C1035.97 347.7 1045.15 344.63 1054.93 344.63C1057.15 344.63 1058.26 345.28 1058.26 346.59C1058.26 347.15 1057.96 348.16 1057.36 349.6L1057.15 350.18C1055.25 349.87 1053.09 349.71 1050.69 349.71C1043.85 349.71 1038.08 350.68 1033.39 352.62C1028.7 354.56 1024.54 357.7 1020.9 362.04C1018.64 364.76 1016.77 367.73 1015.29 370.96C1013.81 374.19 1013.07 376.93 1013.07 379.19C1013.07 382.61 1014.16 384.32 1016.35 384.32C1018.11 384.32 1020.45 383.05 1023.36 380.51C1026.27 377.97 1029.05 374.8 1031.7 370.98C1035.83 364.98 1038.37 359.27 1039.32 353.84C1040.77 355.18 1041.49 356.77 1041.49 358.6C1041.49 361.64 1039.74 365.55 1036.25 370.34L1036.89 370.24L1039.11 369.92L1041.44 369.55L1042.16 369.46Z" fill="url(#paint14_linear_418_2)"/>
<path d="M1085.28 380.84L1086.13 382.27C1081.9 385.3 1076.89 387.42 1071.1 388.62C1071.84 382.8 1075.26 373.96 1081.36 362.11L1084.8 355.55C1085.97 353.29 1086.55 351.84 1086.55 351.21C1086.55 350.26 1086.16 349.78 1085.38 349.78C1084.29 349.78 1082.21 351.01 1079.16 353.48C1076.11 355.95 1073.14 358.81 1070.24 362.05C1064.24 368.75 1059.22 376.8 1055.16 386.18C1053.5 386.57 1051.16 387.41 1048.12 388.72C1051.36 382.09 1054.64 374.64 1057.93 366.36C1061.23 358.09 1062.88 353.2 1062.88 351.68C1062.88 350.41 1062.37 349.78 1061.35 349.78C1060.82 349.78 1059.68 350.04 1057.91 350.57L1057.33 350.73L1057.01 349.04C1061.95 347.63 1066.41 346.04 1070.39 344.28L1071.08 343.96C1071.15 344.42 1071.19 344.74 1071.19 344.91C1071.19 348.05 1068.88 354.74 1064.26 364.97L1063.52 366.56L1064.42 365.56C1070.2 358.96 1075.54 353.77 1080.42 349.98C1085.31 346.19 1089.12 344.29 1091.88 344.29C1093.61 344.29 1094.47 345.17 1094.47 346.94C1094.47 348.77 1092.16 354.19 1087.54 363.18C1082 373.91 1079.23 379.93 1079.23 381.27C1079.23 382.3 1079.7 382.81 1080.65 382.81C1081.71 382.81 1083.16 382.23 1084.99 381.07L1085.28 380.84Z" fill="url(#paint15_linear_418_2)"/>
</g>
<defs>
<linearGradient id="paint0_linear_418_2" x1="240.97" y1="114.875" x2="244.97" y2="356.209" gradientUnits="userSpaceOnUse">
<stop stop-color="#84B81E" stop-opacity="0.99"/>
<stop offset="0.133213" stop-color="#84B81E"/>
<stop offset="0.273215" stop-color="#84B81E"/>
<stop offset="0.96" stop-color="#035D26"/>
<stop offset="1" stop-color="#035D26"/>
</linearGradient>
<linearGradient id="paint1_linear_418_2" x1="204.108" y1="285.886" x2="200.108" y2="596.553" gradientUnits="userSpaceOnUse">
<stop stop-color="#D5D7D8"/>
<stop offset="0.2206" stop-color="white"/>
<stop offset="0.5014" stop-color="#A1A3A6"/>
<stop offset="0.6611" stop-color="white"/>
<stop offset="1" stop-color="#BABCBE"/>
</linearGradient>
<linearGradient id="paint2_linear_418_2" x1="398.129" y1="10.9292" x2="391.096" y2="410.038" gradientUnits="userSpaceOnUse">
<stop stop-color="#D5D7D8"/>
<stop offset="0.2206" stop-color="white"/>
<stop offset="0.5014" stop-color="#A1A3A6"/>
<stop offset="0.872" stop-color="white"/>
<stop offset="0.9779" stop-color="#C3C3C3"/>
</linearGradient>
<linearGradient id="paint3_linear_418_2" x1="111.49" y1="219.299" x2="1170.79" y2="228.947" gradientUnits="userSpaceOnUse">
<stop stop-color="#3C4A59"/>
<stop offset="1" stop-color="white"/>
</linearGradient>
<linearGradient id="paint4_linear_418_2" x1="111.807" y1="185.355" x2="1171.11" y2="195.002" gradientUnits="userSpaceOnUse">
<stop stop-color="#3C4A59"/>
<stop offset="1" stop-color="white"/>
</linearGradient>
<linearGradient id="paint5_linear_418_2" x1="111.651" y1="203.064" x2="1170.95" y2="212.711" gradientUnits="userSpaceOnUse">
<stop stop-color="#3C4A59"/>
<stop offset="1" stop-color="white"/>
</linearGradient>
<linearGradient id="paint6_linear_418_2" x1="111.802" y1="185.999" x2="1171.1" y2="195.646" gradientUnits="userSpaceOnUse">
<stop stop-color="#3C4A59"/>
<stop offset="1" stop-color="white"/>
</linearGradient>
<linearGradient id="paint7_linear_418_2" x1="112.62" y1="202.204" x2="1171.85" y2="211.851" gradientUnits="userSpaceOnUse">
<stop stop-color="#3C4A59"/>
<stop offset="1" stop-color="white"/>
</linearGradient>
<linearGradient id="paint8_linear_418_2" x1="111.664" y1="201.517" x2="1170.96" y2="211.165" gradientUnits="userSpaceOnUse">
<stop stop-color="#3C4A59"/>
<stop offset="1" stop-color="white"/>
</linearGradient>
<linearGradient id="paint9_linear_418_2" x1="111.671" y1="200.316" x2="1170.97" y2="209.963" gradientUnits="userSpaceOnUse">
<stop stop-color="#3C4A59"/>
<stop offset="1" stop-color="white"/>
</linearGradient>
<linearGradient id="paint10_linear_418_2" x1="748.373" y1="341.49" x2="1221.1" y2="370.432" gradientUnits="userSpaceOnUse">
<stop stop-color="#328A09"/>
<stop offset="1" stop-color="#AFF022"/>
</linearGradient>
<linearGradient id="paint11_linear_418_2" x1="747.603" y1="354.028" x2="1220.33" y2="382.971" gradientUnits="userSpaceOnUse">
<stop stop-color="#328A09"/>
<stop offset="1" stop-color="#AFF022"/>
</linearGradient>
<linearGradient id="paint12_linear_418_2" x1="747.697" y1="352.522" x2="1220.43" y2="381.465" gradientUnits="userSpaceOnUse">
<stop stop-color="#328A09"/>
<stop offset="1" stop-color="#AFF022"/>
</linearGradient>
<linearGradient id="paint13_linear_418_2" x1="748.237" y1="343.726" x2="1220.97" y2="372.668" gradientUnits="userSpaceOnUse">
<stop stop-color="#328A09"/>
<stop offset="1" stop-color="#AFF022"/>
</linearGradient>
<linearGradient id="paint14_linear_418_2" x1="746.973" y1="364.392" x2="1219.7" y2="393.335" gradientUnits="userSpaceOnUse">
<stop stop-color="#328A09"/>
<stop offset="1" stop-color="#AFF022"/>
</linearGradient>
<linearGradient id="paint15_linear_418_2" x1="748.045" y1="346.792" x2="1220.78" y2="375.734" gradientUnits="userSpaceOnUse">
<stop stop-color="#328A09"/>
<stop offset="1" stop-color="#AFF022"/>
</linearGradient>
<clipPath id="clip0_418_2">
<rect width="1221.74" height="477" fill="white"/>
</clipPath>
</defs>
</svg>