<svg width="279" height="44" viewBox="0 0 279 44" fill="none" xmlns="http://www.w3.org/2000/svg">
<path d="M52.13 15.37L54.99 20.24L54.98 20.25L68.49 43.39H80.61L67.44 20.93L71.1 15.37L87.44 43.39H99.63L74.64 0.800003H68.25L61.58 10.91L55.66 0.800003H49.28L42.03 11.78L47.89 21.79L52.13 15.37Z" fill="#2E3192"/>
<path d="M12.96 0.800003H0.77002L25.76 43.39H32.15L38.82 33.27L44.74 43.39H51.12L58.36 32.41L52.51 22.4L48.27 28.82L45.41 23.94L45.42 23.93L31.9 0.800003H19.8L32.96 23.26L29.29 28.81L12.96 0.800003Z" fill="#00AEEF"/>
<path d="M135.803 1.19233L123.891 18.1558C123.306 18.9764 122.556 19.3867 121.641 19.3867C120.726 19.3867 119.991 18.9811 119.434 18.17L107.748 1.19233H112.219L121.797 14.7462L131.12 1.19233H135.803ZM141.76 2.97498C141.76 3.5692 141.5 4.04552 140.982 4.40393C140.529 4.72462 139.991 4.88497 139.369 4.88497C138.737 4.88497 138.199 4.72462 137.756 4.40393C137.256 4.03608 137.006 3.54562 137.006 2.93254C137.006 2.31945 137.256 1.8337 137.756 1.47529C138.199 1.14517 138.737 0.980106 139.369 0.980106C139.991 0.980106 140.534 1.1546 140.996 1.50358C141.505 1.88086 141.76 2.37133 141.76 2.97498ZM141.18 19.3443H137.36V5.28111H141.18V19.3443ZM162.869 14.7462C162.869 16.3496 161.93 17.5663 160.053 18.3964C158.62 19.0283 156.983 19.3443 155.144 19.3443H150.588C145.57 19.3443 143.061 17.9342 143.061 15.114V9.66701C143.061 6.58273 145.556 5.0406 150.546 5.0406H159.035V1.20647H162.869V14.7462ZM159.035 14.6896V8.39368H150.362C148.051 8.39368 146.895 8.8417 146.895 9.73775V14.5481C146.895 15.5384 147.843 16.0242 149.739 16.0053L154.847 15.9912C157.639 15.9912 159.035 15.5573 159.035 14.6896ZM173.989 8.29465H171.046C169.122 8.29465 168.16 8.71437 168.16 9.55382V19.4433H164.326V9.55382C164.326 6.46955 166.684 4.92741 171.4 4.92741H173.989V8.29465ZM195.876 14.8452C195.876 17.8446 193.697 19.3443 189.34 19.3443H182.039C180.417 19.3443 178.96 19.0236 177.667 18.3822C176.055 17.5805 175.248 16.4486 175.248 14.9867V13.2606C175.248 11.7138 176.017 10.5489 177.554 9.76604C178.762 9.14353 180.224 8.83227 181.94 8.83227H191.731C191.731 8.37953 190.934 8.15317 189.34 8.15317H185.166V4.92741H189.34C191.103 4.92741 192.561 5.2481 193.711 5.88948C195.154 6.6912 195.876 7.90322 195.876 9.52553V14.8452ZM192.056 13.2323V12.822L192.042 12.1854H181.869C180.011 12.1854 179.082 12.6805 179.082 13.6709V14.6754C179.082 15.5526 180.04 15.9912 181.954 15.9912H189.651C190.773 15.9912 191.471 15.8025 191.745 15.4253C191.952 15.1329 192.056 14.4019 192.056 13.2323ZM217.565 19.3443H204.747C202.606 19.3443 200.974 19.1085 199.852 18.6369C198.173 17.9295 197.333 16.6561 197.333 14.8169V9.46893C197.333 6.44125 199.597 4.92741 204.124 4.92741H217.565V8.29465H203.926C202.087 8.29465 201.167 8.65778 201.167 9.38405V14.6896C201.167 15.5573 202.389 15.9912 204.832 15.9912H217.565V19.3443ZM212.005 19.5423C212.005 20.844 211.698 21.9004 211.085 22.7115C210.406 23.6075 209.435 24.0556 208.171 24.0556H204.803V20.6459H207.746C208.029 20.6459 208.171 20.4761 208.171 20.1366V18.0144H212.005V19.5423ZM239.678 14.8452C239.678 17.8446 237.5 19.3443 233.142 19.3443H225.842C224.219 19.3443 222.762 19.0236 221.47 18.3822C219.857 17.5805 219.051 16.4486 219.051 14.9867V13.2606C219.051 11.7138 219.819 10.5489 221.357 9.76604C222.564 9.14353 224.026 8.83227 225.743 8.83227H235.533C235.533 8.37953 234.736 8.15317 233.142 8.15317H228.968V4.92741H233.142C234.906 4.92741 236.363 5.2481 237.514 5.88948C238.957 6.6912 239.678 7.90322 239.678 9.52553V14.8452ZM235.858 13.2323V12.822L235.844 12.1854H225.672C223.814 12.1854 222.885 12.6805 222.885 13.6709V14.6754C222.885 15.5526 223.842 15.9912 225.757 15.9912H233.453C234.576 15.9912 235.274 15.8025 235.547 15.4253C235.755 15.1329 235.858 14.4019 235.858 13.2323ZM250.756 8.29465H247.814C245.889 8.29465 244.927 8.71437 244.927 9.55382V19.4433H241.093V9.55382C241.093 6.46955 243.451 4.92741 248.167 4.92741H250.756V8.29465ZM256.783 2.97498C256.783 3.5692 256.524 4.04552 256.005 4.40393C255.553 4.72462 255.015 4.88497 254.392 4.88497C253.76 4.88497 253.223 4.72462 252.779 4.40393C252.28 4.03608 252.03 3.54562 252.03 2.93254C252.03 2.31945 252.28 1.8337 252.779 1.47529C253.223 1.14517 253.76 0.980106 254.392 0.980106C255.015 0.980106 255.557 1.1546 256.019 1.50358C256.529 1.88086 256.783 2.37133 256.783 2.97498ZM256.203 19.3443H252.383V5.28111H256.203V19.3443ZM278.614 14.8452C278.614 17.8446 276.435 19.3443 272.077 19.3443H264.777C263.155 19.3443 261.697 19.0236 260.405 18.3822C258.792 17.5805 257.986 16.4486 257.986 14.9867V13.2606C257.986 11.7138 258.755 10.5489 260.292 9.76604C261.499 9.14353 262.961 8.83227 264.678 8.83227H274.468C274.468 8.37953 273.671 8.15317 272.077 8.15317H267.904V4.92741H272.077C273.841 4.92741 275.298 5.2481 276.449 5.88948C277.892 6.6912 278.614 7.90322 278.614 9.52553V14.8452ZM274.794 13.2323V12.822L274.78 12.1854H264.607C262.749 12.1854 261.82 12.6805 261.82 13.6709V14.6754C261.82 15.5526 262.777 15.9912 264.692 15.9912H272.389C273.511 15.9912 274.209 15.8025 274.483 15.4253C274.69 15.1329 274.794 14.4019 274.794 13.2323Z" fill="#00AEEF"/>
<path d="M126.26 29.8672L122.711 34.922C122.536 35.1665 122.313 35.2888 122.04 35.2888C121.768 35.2888 121.548 35.168 121.383 34.9262L117.9 29.8672H119.232L122.087 33.906L124.865 29.8672H126.26ZM128.035 30.3984C128.035 30.5755 127.958 30.7174 127.803 30.8242C127.668 30.9198 127.508 30.9675 127.323 30.9675C127.134 30.9675 126.974 30.9198 126.842 30.8242C126.693 30.7146 126.619 30.5684 126.619 30.3858C126.619 30.2031 126.693 30.0583 126.842 29.9515C126.974 29.8531 127.134 29.804 127.323 29.804C127.508 29.804 127.67 29.856 127.808 29.9599C127.959 30.0724 128.035 30.2185 128.035 30.3984ZM127.862 35.2762H126.724V31.0856H127.862V35.2762ZM134.325 33.906C134.325 34.3838 134.046 34.7464 133.486 34.9937C133.059 35.182 132.572 35.2762 132.023 35.2762H130.666C129.171 35.2762 128.423 34.856 128.423 34.0156V32.3925C128.423 31.4734 129.166 31.0139 130.653 31.0139H133.183V29.8714H134.325V33.906ZM133.183 33.8891V32.0131H130.598C129.91 32.0131 129.566 32.1466 129.566 32.4136V33.847C129.566 34.1421 129.848 34.2868 130.413 34.2812L131.935 34.277C132.767 34.277 133.183 34.1477 133.183 33.8891ZM137.639 31.9836H136.762C136.189 31.9836 135.902 32.1086 135.902 32.3588V35.3057H134.76V32.3588C134.76 31.4397 135.462 30.9802 136.867 30.9802H137.639V31.9836ZM143.929 33.8934C143.929 34.3936 143.69 34.7632 143.212 35.0021C142.847 35.1848 142.386 35.2762 141.83 35.2762H140.35C139.793 35.2762 139.32 35.1834 138.929 34.9979C138.418 34.7562 138.162 34.388 138.162 33.8934V32.4052C138.162 31.9161 138.416 31.5423 138.925 31.2837C139.327 31.0814 139.8 30.9802 140.346 30.9802H141.83C143.229 30.9802 143.929 31.4524 143.929 32.3967V33.8934ZM142.774 33.8512V32.3799C142.774 32.2337 142.646 32.1269 142.39 32.0595C142.213 32.0089 142.018 31.9836 141.804 31.9836H140.358C140.153 31.9836 139.945 32.0173 139.734 32.0847C139.448 32.1719 139.304 32.2927 139.304 32.4473V33.8512C139.304 34.0002 139.452 34.114 139.747 34.1927C139.958 34.2489 140.163 34.277 140.362 34.277H141.808C141.983 34.277 142.172 34.2447 142.378 34.18C142.642 34.0957 142.774 33.9861 142.774 33.8512ZM149.814 33.9945C149.814 34.849 149.185 35.2762 147.926 35.2762H144.452V34.277H147.93C148.402 34.277 148.638 34.1828 148.638 33.9945V33.8428C148.638 33.6826 148.427 33.6025 148.006 33.6025H146.56C145.146 33.6025 144.439 33.1893 144.439 32.363V32.1438C144.439 31.6575 144.674 31.3259 145.143 31.1488C145.438 31.0364 145.878 30.9802 146.463 30.9802H147.61V31.9836H146.501C145.888 31.9836 145.582 32.0468 145.582 32.1733V32.3546C145.582 32.4754 145.722 32.5499 146.003 32.578C146.079 32.5864 146.266 32.5907 146.564 32.5907H148.04C149.223 32.5907 149.814 32.9968 149.814 33.809V33.9945ZM159.216 33.691H154.553C154.553 34.0873 155.111 34.2854 156.227 34.2854C156.3 34.2854 156.388 34.284 156.492 34.2812C156.596 34.2784 156.662 34.277 156.69 34.277V35.2804H155.86C154.913 35.2804 154.265 35.1455 153.916 34.8757C153.554 34.5974 153.373 34.2629 153.373 33.8723V32.3841C153.373 31.8754 153.638 31.4987 154.169 31.2542C154.569 31.0687 155.056 30.976 155.632 30.976H157.293C157.777 30.976 158.194 31.0645 158.545 31.2416C158.992 31.4636 159.216 31.791 159.216 32.2239V33.691ZM158.094 32.6665V32.3377C158.094 32.0904 157.782 31.9667 157.158 31.9667H155.497C154.843 31.9667 154.515 32.0876 154.515 32.3293V32.6665H158.094ZM168.874 35.2762H165.063C164.507 35.2762 164.026 35.1806 163.621 34.9895C163.101 34.7365 162.841 34.3627 162.841 33.8681V31.3217C162.841 30.8101 163.111 30.4293 163.651 30.1792C164.064 29.9852 164.562 29.8883 165.143 29.8883H166.353V30.9043H165.202C164.415 30.9043 164.022 31.0434 164.022 31.3217V32.0932H168.874V33.1176H164.03V33.8343C164.03 34.1126 164.389 34.2517 165.105 34.2517H168.874V35.2762ZM174.637 33.9945C174.637 34.849 174.008 35.2762 172.749 35.2762H169.275V34.277H172.753C173.225 34.277 173.461 34.1828 173.461 33.9945V33.8428C173.461 33.6826 173.25 33.6025 172.829 33.6025H171.383C169.969 33.6025 169.262 33.1893 169.262 32.363V32.1438C169.262 31.6575 169.497 31.3259 169.966 31.1488C170.261 31.0364 170.701 30.9802 171.286 30.9802H172.433V31.9836H171.324C170.711 31.9836 170.405 32.0468 170.405 32.1733V32.3546C170.405 32.4754 170.545 32.5499 170.826 32.578C170.902 32.5864 171.089 32.5907 171.387 32.5907H172.863C174.046 32.5907 174.637 32.9968 174.637 33.809V33.9945ZM180.915 36.3934H179.764V35.2424H177.129C175.76 35.2424 175.076 34.7829 175.076 33.8638V32.2998C175.076 31.42 175.829 30.9802 177.336 30.9802H178.765C180.198 30.9802 180.915 31.4214 180.915 32.304V36.3934ZM179.764 34.2475V32.3251C179.764 32.0946 179.415 31.9793 178.718 31.9793H177.108C176.515 31.9793 176.218 32.089 176.218 32.3082V33.8765C176.218 34.1238 176.494 34.2475 177.045 34.2475H179.764ZM187.323 33.9439C187.323 34.492 187.059 34.87 186.53 35.078C186.19 35.2101 185.694 35.2762 185.042 35.2762H183.714C182.185 35.2762 181.421 34.8321 181.421 33.9439V30.9591H182.563V33.9018C182.563 34.1519 182.927 34.277 183.655 34.277H185.105C185.814 34.277 186.168 34.1561 186.168 33.9144V30.9591H187.323V33.9439ZM193.933 33.9355C193.933 34.8293 193.284 35.2762 191.986 35.2762H189.81C189.327 35.2762 188.893 35.1806 188.508 34.9895C188.027 34.7506 187.787 34.4133 187.787 33.9777V33.4633C187.787 33.0024 188.016 32.6553 188.474 32.422C188.834 32.2365 189.269 32.1438 189.781 32.1438H192.698C192.698 32.0089 192.461 31.9414 191.986 31.9414H190.742V30.9802H191.986C192.511 30.9802 192.946 31.0757 193.288 31.2669C193.718 31.5058 193.933 31.8669 193.933 32.3503V33.9355ZM192.795 33.4549V33.3326L192.791 33.1429H189.76C189.206 33.1429 188.929 33.2905 188.929 33.5856V33.8849C188.929 34.1463 189.215 34.277 189.785 34.277H192.078C192.413 34.277 192.621 34.2208 192.702 34.1084C192.764 34.0212 192.795 33.8034 192.795 33.4549ZM200.287 33.906C200.287 34.3838 200.007 34.7464 199.448 34.9937C199.021 35.182 198.533 35.2762 197.985 35.2762H196.627C195.132 35.2762 194.385 34.856 194.385 34.0156V32.3925C194.385 31.4734 195.128 31.0139 196.615 31.0139H199.144V29.8714H200.287V33.906ZM199.144 33.8891V32.0131H196.56C195.871 32.0131 195.527 32.1466 195.527 32.4136V33.847C195.527 34.1421 195.81 34.2868 196.374 34.2812L197.896 34.277C198.728 34.277 199.144 34.1477 199.144 33.8891ZM203.6 31.9836H202.724C202.15 31.9836 201.864 32.1086 201.864 32.3588V35.3057H200.721V32.3588C200.721 31.4397 201.424 30.9802 202.829 30.9802H203.6V31.9836ZM205.396 30.3984C205.396 30.5755 205.319 30.7174 205.165 30.8242C205.03 30.9198 204.869 30.9675 204.684 30.9675C204.496 30.9675 204.335 30.9198 204.203 30.8242C204.054 30.7146 203.98 30.5684 203.98 30.3858C203.98 30.2031 204.054 30.0583 204.203 29.9515C204.335 29.8531 204.496 29.804 204.684 29.804C204.869 29.804 205.031 29.856 205.169 29.9599C205.321 30.0724 205.396 30.2185 205.396 30.3984ZM205.224 35.2762H204.085V31.0856H205.224V35.2762ZM207.011 35.3057H205.822V29.8588H207.011V35.3057ZM213.419 35.3015H212.277V32.4347C212.277 32.1508 211.973 32.0089 211.366 32.0089H208.723V35.3015H207.58V29.863H208.723V31.0139H210.999C211.719 31.0139 212.249 31.08 212.589 31.2121C213.142 31.4229 213.419 31.8262 213.419 32.422V35.3015ZM220.072 33.9355C220.072 34.8293 219.423 35.2762 218.124 35.2762H215.949C215.465 35.2762 215.031 35.1806 214.646 34.9895C214.165 34.7506 213.925 34.4133 213.925 33.9777V33.4633C213.925 33.0024 214.154 32.6553 214.612 32.422C214.972 32.2365 215.408 32.1438 215.919 32.1438H218.837C218.837 32.0089 218.599 31.9414 218.124 31.9414H216.88V30.9802H218.124C218.65 30.9802 219.084 31.0757 219.427 31.2669C219.857 31.5058 220.072 31.8669 220.072 32.3503V33.9355ZM218.934 33.4549V33.3326L218.929 33.1429H215.898C215.344 33.1429 215.068 33.2905 215.068 33.5856V33.8849C215.068 34.1463 215.353 34.277 215.923 34.277H218.217C218.551 34.277 218.759 34.2208 218.841 34.1084C218.903 34.0212 218.934 33.8034 218.934 33.4549ZM229.612 33.906C229.612 34.3838 229.333 34.7464 228.773 34.9937C228.346 35.182 227.859 35.2762 227.311 35.2762H225.953C224.458 35.2762 223.71 34.856 223.71 34.0156V32.3925C223.71 31.4734 224.454 31.0139 225.94 31.0139H228.47V29.8714H229.612V33.906ZM228.47 33.8891V32.0131H225.886C225.197 32.0131 224.853 32.1466 224.853 32.4136V33.847C224.853 34.1421 225.135 34.2868 225.7 34.2812L227.222 34.277C228.054 34.277 228.47 34.1477 228.47 33.8891ZM235.869 33.691H231.206C231.206 34.0873 231.764 34.2854 232.88 34.2854C232.953 34.2854 233.041 34.284 233.145 34.2812C233.249 34.2784 233.315 34.277 233.343 34.277V35.2804H232.513C231.566 35.2804 230.918 35.1455 230.569 34.8757C230.207 34.5974 230.026 34.2629 230.026 33.8723V32.3841C230.026 31.8754 230.291 31.4987 230.822 31.2542C231.221 31.0687 231.709 30.976 232.285 30.976H233.946C234.43 30.976 234.847 31.0645 235.198 31.2416C235.645 31.4636 235.869 31.791 235.869 32.2239V33.691ZM234.747 32.6665V32.3377C234.747 32.0904 234.435 31.9667 233.811 31.9667H232.15C231.495 31.9667 231.168 32.0876 231.168 32.3293V32.6665H234.747ZM245.612 33.9355C245.612 34.8293 244.962 35.2762 243.664 35.2762H241.488C241.005 35.2762 240.571 35.1806 240.186 34.9895C239.705 34.7506 239.465 34.4133 239.465 33.9777V33.4633C239.465 33.0024 239.694 32.6553 240.152 32.422C240.512 32.2365 240.947 32.1438 241.459 32.1438H244.376C244.376 32.0089 244.139 31.9414 243.664 31.9414H242.42V30.9802H243.664C244.189 30.9802 244.624 31.0757 244.967 31.2669C245.397 31.5058 245.612 31.8669 245.612 32.3503V33.9355ZM244.473 33.4549V33.3326L244.469 33.1429H241.438C240.884 33.1429 240.607 33.2905 240.607 33.5856V33.8849C240.607 34.1463 240.893 34.277 241.463 34.277H243.757C244.091 34.277 244.299 34.2208 244.381 34.1084C244.442 34.0212 244.473 33.8034 244.473 33.4549ZM247.29 35.3057H246.101V29.8588H247.29V35.3057ZM253.723 33.9439C253.723 34.492 253.459 34.87 252.93 35.078C252.59 35.2101 252.094 35.2762 251.442 35.2762H250.114C248.585 35.2762 247.821 34.8321 247.821 33.9439V30.9591H248.963V33.9018C248.963 34.1519 249.327 34.277 250.055 34.277H251.505C252.214 34.277 252.568 34.1561 252.568 33.9144V30.9591H253.723V33.9439ZM262.155 35.3015H261.008V32.4515C261.008 32.2745 260.848 32.1381 260.527 32.0426C260.3 31.9779 260.064 31.9456 259.819 31.9456C259.577 31.9456 259.365 31.9765 259.182 32.0384C258.918 32.1227 258.786 32.2562 258.786 32.4389V35.3015H257.635V32.4304C257.635 32.2449 257.491 32.1058 257.201 32.0131C256.996 31.9456 256.771 31.9119 256.526 31.9119C256.274 31.9119 256.043 31.947 255.835 32.0173C255.543 32.1157 255.397 32.2632 255.397 32.46V35.3015H254.254V32.4262C254.254 31.4622 254.943 30.9802 256.32 30.9802C257.264 30.9802 257.902 31.1263 258.234 31.4186C258.625 31.1263 259.267 30.9802 260.161 30.9802C261.49 30.9802 262.155 31.4622 262.155 32.4262V35.3015ZM264.107 30.3984C264.107 30.5755 264.029 30.7174 263.875 30.8242C263.74 30.9198 263.58 30.9675 263.394 30.9675C263.206 30.9675 263.046 30.9198 262.914 30.8242C262.765 30.7146 262.69 30.5684 262.69 30.3858C262.69 30.2031 262.765 30.0583 262.914 29.9515C263.046 29.8531 263.206 29.804 263.394 29.804C263.58 29.804 263.741 29.856 263.879 29.9599C264.031 30.0724 264.107 30.2185 264.107 30.3984ZM263.934 35.2762H262.795V31.0856H263.934V35.2762ZM270.241 35.3015H269.09V32.3293C269.09 32.2028 268.953 32.1086 268.681 32.0468C268.498 32.0046 268.303 31.9836 268.095 31.9836H266.56C266.361 31.9836 266.174 32.0061 266 32.051C265.744 32.1129 265.616 32.207 265.616 32.3335V35.3015H264.473V32.2576C264.473 31.406 265.196 30.9802 266.64 30.9802H268.095C269.525 30.9802 270.241 31.4032 270.241 32.2492V35.3015ZM271.885 35.3015H270.747V31.3259H271.885V35.3015ZM272.968 29.648L271.742 31.094H270.772L272.016 29.648H272.968ZM278.306 33.8934C278.306 34.3936 278.067 34.7632 277.589 35.0021C277.224 35.1848 276.763 35.2762 276.206 35.2762H274.726C274.17 35.2762 273.696 35.1834 273.306 34.9979C272.794 34.7562 272.538 34.388 272.538 33.8934V32.4052C272.538 31.9161 272.793 31.5423 273.301 31.2837C273.703 31.0814 274.177 30.9802 274.722 30.9802H276.206C277.606 30.9802 278.306 31.4524 278.306 32.3967V33.8934ZM277.151 33.8512V32.3799C277.151 32.2337 277.023 32.1269 276.767 32.0595C276.59 32.0089 276.394 31.9836 276.181 31.9836H274.735C274.53 31.9836 274.322 32.0173 274.111 32.0847C273.824 32.1719 273.681 32.2927 273.681 32.4473V33.8512C273.681 34.0002 273.828 34.114 274.124 34.1927C274.334 34.2489 274.539 34.277 274.739 34.277H276.185C276.359 34.277 276.549 34.2447 276.754 34.18C277.018 34.0957 277.151 33.9861 277.151 33.8512Z" fill="white"/>
</svg>

